<?xml version="1.0" encoding="UTF-8" standalone="no"?>
<!-- Generator: Adobe Illustrator 16.0.0, SVG Export Plug-In . SVG Version: 6.00 Build 0)  -->
<!DOCTYPE svg  PUBLIC '-//W3C//DTD SVG 1.1//EN'  'http://www.w3.org/Graphics/SVG/1.1/DTD/svg11.dtd'>
<svg id="Layer_8" xmlns="http://www.w3.org/2000/svg" xml:space="preserve" height="50px" viewBox="0 0 195 66.771" width="140px" version="1.1" y="0px" x="0px" xmlns:xlink="http://www.w3.org/1999/xlink" enable-background="new 0 0 195 66.771">
	<path d="m195 57.166c0 5.924-4.353 9.605-10.271 9.605h-174c-5.928 0-10.73-4.802-10.73-10.726v-45.319c0-5.923 4.802-10.726 10.725-10.726h174c5.93 0 10.28 4.803 10.28 10.726v46.44z" fill="#010101"/>
	<path d="m37.831 33.519c-0.044-4.948 4.052-7.355 4.24-7.467-2.321-3.383-5.916-3.845-7.18-3.881-3.02-0.318-5.949 1.806-7.487 1.806-1.569 0-3.938-1.776-6.491-1.725-3.286 0.052-6.359 1.954-8.045 4.909-3.478 6.021-0.884 14.873 2.449 19.741 1.667 2.385 3.615 5.046 6.166 4.952 2.495-0.101 3.427-1.59 6.438-1.59 2.983 0 3.858 1.59 6.458 1.529 2.678-0.04 4.364-2.395 5.973-4.801 1.927-2.73 2.7-5.424 2.731-5.563-0.063-0.019-5.2-1.98-5.252-7.91z" fill="#fff"/>
	<path d="m32.918 18.969c1.341-1.679 2.259-3.961 2.005-6.279-1.943 0.087-4.371 1.344-5.77 2.985-1.237 1.447-2.343 3.816-2.057 6.047 2.181 0.162 4.422-1.102 5.822-2.753z" fill="#fff"/>
	<g fill="#fff">
		<path d="m73.967 51.513h-3.487l-1.91-6h-6.638l-1.819 6h-3.395l6.578-20.433h4.062l6.609 20.433zm-5.972-8.52l-1.728-5.334c-0.182-0.546-0.526-1.829-1.03-3.85h-0.062c-0.202 0.868-0.526 2.152-0.97 3.85l-1.699 5.334h5.489z"/>
		<path d="m90.852 43.965c0 2.507-0.68 4.485-2.042 5.94-1.22 1.294-2.735 1.94-4.542 1.94-1.951 0-3.355-0.696-4.207-2.091v7.73h-3.273v-15.861c0-1.573-0.041-3.188-0.121-4.843h2.878l0.183 2.336h0.062c1.091-1.76 2.748-2.641 4.971-2.641 1.738 0 3.189 0.688 4.349 2.061 1.16 1.377 1.742 3.186 1.742 5.429zm-3.334 0.12c0-1.434-0.323-2.615-0.972-3.547-0.707-0.969-1.658-1.455-2.849-1.455-0.808 0-1.542 0.271-2.198 0.805-0.657 0.536-1.087 1.237-1.288 2.107-0.101 0.404-0.152 0.734-0.152 0.995v2.46c0 1.068 0.329 1.973 0.985 2.713 0.658 0.736 1.51 1.105 2.561 1.105 1.233 0 2.193-0.476 2.878-1.424 0.69-0.949 1.035-2.202 1.035-3.759z"/>
		<path d="m107.8 43.965c0 2.507-0.681 4.485-2.042 5.94-1.22 1.294-2.734 1.94-4.543 1.94-1.951 0-3.354-0.696-4.207-2.091v7.73h-3.273v-15.861c0-1.573-0.042-3.188-0.121-4.843h2.878l0.183 2.336h0.062c1.09-1.76 2.746-2.641 4.972-2.641 1.736 0 3.188 0.688 4.352 2.061 1.15 1.377 1.74 3.186 1.74 5.429zm-3.34 0.12c0-1.434-0.324-2.615-0.972-3.547-0.707-0.969-1.655-1.455-2.848-1.455-0.807 0-1.541 0.271-2.198 0.805-0.657 0.536-1.086 1.237-1.287 2.107-0.101 0.404-0.154 0.734-0.154 0.995v2.46c0 1.068 0.329 1.973 0.985 2.713 0.657 0.734 1.51 1.105 2.563 1.105 1.235 0 2.193-0.476 2.88-1.424 0.69-0.949 1.03-2.202 1.03-3.759z"/>
		<path d="m126.74 45.782c0 1.739-0.607 3.152-1.816 4.244-1.33 1.191-3.187 1.789-5.565 1.789-2.199 0-3.961-0.424-5.291-1.273l0.758-2.727c1.435 0.848 3.011 1.272 4.729 1.272 1.234 0 2.193-0.278 2.878-0.833 0.688-0.557 1.033-1.299 1.033-2.227 0-0.83-0.286-1.526-0.849-2.094-0.567-0.563-1.505-1.091-2.82-1.574-3.576-1.334-5.367-3.286-5.367-5.854 0-1.676 0.634-3.047 1.895-4.121 1.263-1.072 2.935-1.607 5.018-1.607 1.858 0 3.408 0.324 4.638 0.971l-0.822 2.668c-1.157-0.626-2.462-0.939-3.925-0.939-1.154 0-2.062 0.283-2.709 0.85-0.544 0.504-0.822 1.121-0.822 1.85 0 0.808 0.315 1.477 0.942 2.001 0.545 0.483 1.535 1.011 2.97 1.577 1.759 0.708 3.052 1.535 3.878 2.482 0.83 0.95 1.24 2.133 1.24 3.545z"/>
		<path d="m137.59 39.236h-3.609v7.153c0 1.818 0.637 2.727 1.911 2.727 0.584 0 1.068-0.049 1.453-0.152l0.091 2.485c-0.645 0.241-1.494 0.362-2.546 0.362-1.293 0-2.302-0.395-3.031-1.184s-1.093-2.111-1.093-3.971v-7.426h-2.148v-2.456h2.148v-2.699l3.215-0.968v3.667h3.609v2.462z"/>
		<path d="m153.84 44.025c0 2.264-0.647 4.122-1.942 5.577-1.352 1.496-3.152 2.243-5.395 2.243-2.165 0-3.887-0.718-5.17-2.15-1.283-1.435-1.925-3.243-1.925-5.425 0-2.283 0.664-4.152 1.985-5.607 1.324-1.454 3.109-2.183 5.352-2.183 2.162 0 3.899 0.72 5.212 2.153 1.27 1.391 1.9 3.188 1.9 5.392zm-3.39 0.075c0-1.349-0.291-2.507-0.876-3.476-0.688-1.169-1.671-1.754-2.941-1.754-1.311 0-2.318 0.585-3.002 1.754-0.588 0.969-0.878 2.148-0.878 3.537 0 1.352 0.29 2.512 0.878 3.478 0.708 1.171 1.694 1.755 2.976 1.755 1.249 0 2.229-0.598 2.94-1.784 0.59-0.991 0.9-2.158 0.9-3.51z"/>
		<path d="m164.48 39.659c-0.324-0.06-0.669-0.09-1.031-0.09-1.152 0-2.042 0.432-2.67 1.305-0.543 0.768-0.814 1.737-0.814 2.908v7.73h-3.274v-10.093c0-1.695-0.03-3.244-0.094-4.637h2.85l0.119 2.818h0.093c0.345-0.969 0.891-1.75 1.635-2.334 0.732-0.528 1.518-0.791 2.366-0.791 0.303 0 0.575 0.023 0.818 0.061l-0.01 3.123z"/>
		<path d="m179.12 43.449c0 0.586-0.039 1.081-0.12 1.484h-9.817c0.036 1.456 0.514 2.569 1.425 3.337 0.827 0.686 1.897 1.029 3.212 1.029 1.454 0 2.779-0.229 3.974-0.695l0.512 2.271c-1.395 0.607-3.04 0.909-4.939 0.909-2.285 0-4.077-0.671-5.382-2.013-1.302-1.344-1.955-3.15-1.955-5.411 0-2.22 0.605-4.069 1.82-5.545 1.272-1.575 2.989-2.362 5.151-2.362 2.123 0 3.729 0.787 4.822 2.362 0.88 1.248 1.31 2.796 1.31 4.634zm-3.12-0.848c0.025-0.971-0.19-1.809-0.635-2.516-0.567-0.914-1.437-1.367-2.606-1.367-1.07 0-1.942 0.443-2.605 1.334-0.546 0.708-0.869 1.56-0.969 2.546l6.83 0.003z"/>
	</g>
	<g fill="#fff">
		<path d="m66.416 23.77h-1.715l-0.938-2.95h-3.262l-0.896 2.95h-1.668l3.233-10.042h1.995l3.251 10.042zm-2.936-4.189l-0.849-2.621c-0.089-0.27-0.253-0.894-0.507-1.893h-0.031c-0.105 0.432-0.253 1.059-0.478 1.893l-0.833 2.621h2.698z"/>
		<path d="m74.501 16.528l-2.742 7.241h-1.564l-2.652-7.241h1.728l1.238 3.828c0.208 0.641 0.386 1.25 0.52 1.832h0.044c0.12-0.521 0.298-1.131 0.521-1.832l1.221-3.828h1.686z"/>
		<path d="m80.338 23.77l-0.12-0.833h-0.044c-0.491 0.67-1.207 0.996-2.115 0.996-1.297 0-2.221-0.908-2.221-2.131 0-1.787 1.55-2.712 4.232-2.712v-0.133c0-0.954-0.507-1.431-1.505-1.431-0.716 0-1.342 0.18-1.891 0.537l-0.328-1.059c0.671-0.417 1.504-0.625 2.489-0.625 1.891 0 2.846 0.996 2.846 2.993v2.669c0 0.73 0.031 1.295 0.104 1.728h-1.447v0.001zm-0.224-3.608c-1.789 0-2.683 0.434-2.683 1.46 0 0.76 0.463 1.131 1.104 1.131 0.819 0 1.579-0.623 1.579-1.473v-1.118z"/>
		<path d="m85.265 15.335c-0.536 0-0.954-0.418-0.954-0.969s0.432-0.954 0.985-0.954c0.551 0 0.998 0.403 0.982 0.954 0 0.582-0.416 0.969-1.013 0.969zm0.835 8.435h-1.608v-7.241h1.608v7.241z"/>
		<path d="m90.567 23.77h-1.609v-10.564h1.609v10.564z"/>
		<path d="m97.405 23.77l-0.12-0.833h-0.044c-0.492 0.67-1.207 0.996-2.116 0.996-1.295 0-2.22-0.908-2.22-2.131 0-1.787 1.549-2.712 4.231-2.712v-0.133c0-0.954-0.507-1.431-1.505-1.431-0.715 0-1.341 0.18-1.891 0.537l-0.328-1.059c0.671-0.419 1.504-0.627 2.488-0.627 1.89 0 2.848 0.998 2.848 2.995v2.666c0 0.731 0.031 1.298 0.103 1.73h-1.446zm-0.223-3.608c-1.789 0-2.682 0.434-2.682 1.46 0 0.76 0.461 1.131 1.102 1.131 0.821 0 1.581-0.623 1.581-1.473v-1.118z"/>
		<path d="m105.27 23.933c-1.027 0-1.785-0.434-2.276-1.281h-0.032l-0.092 1.118h-1.37c0.044-0.582 0.058-1.239 0.058-1.952v-8.611h1.613v4.382h0.029c0.477-0.806 1.25-1.207 2.31-1.207 1.744 0 2.965 1.491 2.965 3.665-0.01 2.247-1.37 3.886-3.21 3.886zm-0.33-6.289c-0.924 0-1.772 0.805-1.772 1.922v1.268c0 0.998 0.761 1.818 1.744 1.818 1.206 0 1.925-0.984 1.925-2.547-0.01-1.459-0.75-2.461-1.9-2.461z"/>
		<path d="m112.46 23.77h-1.607v-10.564h1.607v10.564z"/>
		<path d="m121.22 20.536h-4.831c0.033 1.371 0.938 2.145 2.279 2.145 0.717 0 1.373-0.119 1.952-0.343l0.251 1.116c-0.686 0.299-1.49 0.447-2.428 0.447-2.266 0-3.605-1.431-3.605-3.648 0-2.22 1.371-3.891 3.426-3.891 1.845 0 3.01 1.372 3.01 3.443 0 0.284-0.02 0.537-0.06 0.731zm-1.48-1.147c0-1.118-0.567-1.907-1.597-1.907-0.924 0-1.651 0.804-1.76 1.907h3.36z"/>
		<path d="m130.97 23.933c-2.116 0-3.487-1.58-3.487-3.724 0-2.235 1.399-3.829 3.609-3.829 2.081 0 3.485 1.504 3.485 3.711 0 2.262-1.45 3.842-3.61 3.842zm0.06-6.378c-1.162 0-1.905 1.087-1.905 2.607 0 1.49 0.759 2.579 1.891 2.579s1.891-1.164 1.891-2.609c0-1.475-0.74-2.577-1.87-2.577z"/>
		<path d="m143.23 23.77h-1.608v-4.16c0-1.281-0.492-1.922-1.461-1.922-0.954 0-1.61 0.82-1.61 1.773v4.308h-1.607v-5.173c0-0.639-0.018-1.325-0.06-2.07h1.415l0.075 1.117h0.046c0.428-0.773 1.311-1.266 2.294-1.266 1.517 0 2.517 1.162 2.517 3.053v4.34h-0.01z"/>
		<path d="m153.75 17.734h-1.77v3.517c0 0.895 0.313 1.342 0.937 1.342 0.285 0 0.524-0.031 0.716-0.075l0.045 1.222c-0.314 0.121-0.73 0.18-1.249 0.18-1.27 0-2.025-0.699-2.025-2.533v-3.651h-1.055v-1.206h1.055v-1.326l1.577-0.479v1.803h1.77v1.206z"/>
		<path d="m162.28 23.77h-1.61v-4.128c0-1.297-0.491-1.95-1.46-1.95-0.834 0-1.607 0.565-1.607 1.712v4.366h-1.61v-10.564h1.61v4.349h0.029c0.508-0.788 1.239-1.177 2.177-1.177 1.533 0 2.472 1.189 2.472 3.084v4.308z"/>
		<path d="m170.5 20.536h-4.827c0.029 1.371 0.936 2.145 2.276 2.145 0.719 0 1.372-0.119 1.952-0.343l0.251 1.116c-0.683 0.299-1.49 0.447-2.429 0.447-2.268 0-3.607-1.431-3.607-3.648 0-2.22 1.373-3.891 3.427-3.891 1.848 0 3.012 1.372 3.012 3.443 0.01 0.284-0.01 0.537-0.05 0.731zm-1.48-1.147c0-1.118-0.567-1.907-1.596-1.907-0.923 0-1.652 0.804-1.757 1.907h3.36z"/>
	</g>
</svg>
