<?xml version="1.0" encoding="UTF-8" standalone="no"?>
<!-- Generator: Adobe Illustrator 16.0.0, SVG Export Plug-In . SVG Version: 6.00 Build 0)  -->
<!DOCTYPE svg  PUBLIC '-//W3C//DTD SVG 1.1//EN'  'http://www.w3.org/Graphics/SVG/1.1/DTD/svg11.dtd'>
<svg id="Layer_8" xmlns="http://www.w3.org/2000/svg" xml:space="preserve" height="50px" viewBox="0 0 195 66.771" width="140px" version="1.1" y="0px" x="0px" xmlns:xlink="http://www.w3.org/1999/xlink" enable-background="new 0 0 195 66.771">
	<path d="m195 57.166c0 5.924-4.353 9.605-10.271 9.605h-174c-5.928 0-10.73-4.802-10.73-10.726v-45.319c0-5.923 4.802-10.726 10.725-10.726h174c5.93 0 10.28 4.803 10.28 10.726v46.44z" fill="#010101"/>
	<g fill="#fff">
			<path d="m133.26 47.93l-1.467 1.379c-0.337 0.186-0.673 0.405-1.011 0.556-1.016 0.462-2.049 0.577-2.966 0.577-0.98 0-2.511-0.063-4.075-1.193-2.174-1.531-3.122-4.159-3.122-6.453 0-4.747 3.865-7.075 7.015-7.075 1.102 0 2.231 0.277 3.152 0.858 1.53 1.011 1.927 2.326 2.146 3.029l-7.197 2.909-2.358 0.182c0.764 3.892 3.396 6.153 6.307 6.153 1.453 0 2.531-0.471 3.521-0.962 0 0.002 0.19-0.103 0.05 0.04zm-4.34-7.742c0.584-0.212 0.889-0.395 0.889-0.822 0-1.223-1.384-2.633-3.034-2.633-1.223 0-3.519 0.951-3.519 4.261 0 0.512 0.062 1.064 0.092 1.616l5.57-2.422z"/>
			<path d="m118.22 47.691c0 1.188 0.213 1.373 1.219 1.468 0.523 0.062 1.048 0.089 1.566 0.152l-1.133 0.673h-5.393c0.706-0.918 0.826-1.009 0.826-1.618v-0.688l-0.011-18.197h-2.382l2.291-1.105h4.376c-0.948 0.549-1.232 0.882-1.354 1.953l-0.03 17.362z"/>
			<path d="m109.85 37.223c0.702 0.579 2.17 1.804 2.17 4.13 0 2.265-1.278 3.334-2.566 4.347-0.396 0.4-0.858 0.831-0.858 1.501 0 0.676 0.462 1.042 0.797 1.318l1.107 0.852c1.341 1.134 2.569 2.176 2.569 4.288 0 2.879-2.785 5.781-8.052 5.781-4.439 0-6.583-2.108-6.583-4.374 0-1.103 0.549-2.664 2.359-3.735 1.899-1.161 4.469-1.316 5.848-1.404-0.43-0.556-0.922-1.14-0.922-2.086 0-0.521 0.158-0.829 0.307-1.194-0.334 0.032-0.672 0.065-0.979 0.065-3.248 0-5.085-2.425-5.085-4.808 0-1.409 0.644-2.97 1.962-4.102 1.744-1.438 3.826-1.688 5.477-1.688h6.309l-1.958 1.108h-1.92v0.001zm-2.17 13.591c-0.252-0.032-0.402-0.032-0.703-0.032-0.276 0-1.931 0.061-3.212 0.492-0.676 0.248-2.636 0.977-2.636 3.151 0 2.171 2.115 3.739 5.386 3.739 2.939 0 4.5-1.411 4.5-3.308-0.01-1.563-1.02-2.386-3.34-4.042zm0.88-5.818c0.71-0.708 0.771-1.682 0.771-2.238 0-2.198-1.313-5.628-3.858-5.628-0.793 0-1.653 0.398-2.143 1.013-0.515 0.64-0.671 1.468-0.671 2.26 0 2.051 1.195 5.452 3.824 5.452 0.77-0.001 1.6-0.375 2.08-0.859z"/>
			<path d="m90.869 50.38c-4.866 0-7.468-3.788-7.468-7.217 0-4.011 3.272-7.44 7.927-7.44 4.501 0 7.319 3.523 7.319 7.222 0 3.611-2.785 7.435-7.778 7.435zm3.829-2.478c0.741-0.978 0.919-2.2 0.919-3.392 0-2.696-1.285-7.84-5.083-7.84-1.008 0-2.025 0.396-2.758 1.04-1.198 1.071-1.409 2.415-1.409 3.735 0 3.025 1.495 8.015 5.207 8.015 1.197 0.001 2.419-0.578 3.124-1.558z"/>
			<path d="m74.577 50.38c-4.867 0-7.465-3.788-7.465-7.217 0-4.011 3.275-7.44 7.928-7.44 4.498 0 7.312 3.523 7.312 7.222 0 3.611-2.78 7.435-7.775 7.435zm3.83-2.478c0.734-0.978 0.918-2.2 0.918-3.392 0-2.696-1.288-7.84-5.082-7.84-1.013 0-2.02 0.396-2.754 1.04-1.198 1.071-1.408 2.415-1.408 3.735 0 3.025 1.498 8.015 5.203 8.015 1.197 0.001 2.417-0.578 3.123-1.558z"/>
			<path d="m65.167 49.318l-4.104 0.94c-1.663 0.264-3.156 0.494-4.737 0.494-7.916 0-10.932-5.826-10.932-10.388 0-5.57 4.272-10.732 11.592-10.732 1.547 0 3.038 0.226 4.395 0.595 2.149 0.605 3.158 1.352 3.786 1.787l-2.386 2.268-1.006 0.221 0.716-1.141c-0.97-0.947-2.754-2.699-6.14-2.699-4.529 0-7.944 3.44-7.944 8.467 0 5.396 3.902 10.473 10.154 10.473 1.838 0 2.786-0.368 3.642-0.712v-4.628l-4.333 0.231 2.298-1.231h6.08l-0.744 0.716c-0.202 0.169-0.227 0.226-0.283 0.46-0.03 0.261-0.059 1.091-0.059 1.384v3.496h0.005v-0.001z"/>
			<path d="m142.09 48.059v7.798h-1.547v-19.841h1.547v2.259c1.008-1.462 2.853-2.618 4.992-2.618 3.838 0 6.428 2.913 6.428 7.522 0 4.582-2.588 7.555-6.428 7.555-2.02 0.001-3.83-1.042-4.99-2.675zm9.75-4.878c0-3.475-1.813-6.126-5.025-6.126-1.996 0-3.901 1.569-4.731 2.935v6.352c0.83 1.369 2.735 2.995 4.731 2.995 3.21-0.001 5.02-2.675 5.02-6.156z"/>
			<path d="m155.62 50.378v-19.84h1.554v19.84h-1.55z"/>
			<path d="m174.54 54.573c0.329 0.149 0.894 0.239 1.253 0.239 0.944 0 1.607-0.389 2.196-1.756l1.134-2.559-6.101-14.482h1.727l5.234 12.552 5.182-12.552h1.751l-7.44 17.521c-0.771 1.806-1.986 2.674-3.655 2.674-0.5 0-1.16-0.092-1.547-0.208l0.27-1.429z"/>
			<path d="m170.02 50.336c-0.104-0.5-0.181-0.938-0.237-1.306-0.048-0.363-0.072-0.741-0.072-1.121-0.531 0.78-1.284 1.429-2.244 1.939-0.96 0.513-1.875 0.767-3.129 0.767-1.508 0-2.676-0.37-3.516-1.123-0.832-0.753-1.252-1.772-1.252-3.062 0-1.288 0.609-2.334 1.818-3.13 1.21-0.804 2.774-1.2 4.711-1.2h3.611v-1.788c0-1.03-0.353-1.835-1.051-2.423-0.703-0.587-1.688-0.882-2.965-0.882-1.17 0-2.117 0.269-2.835 0.798-0.714 0.539-1.076 1.204-1.076 2.01h-1.586l-0.029-0.076c-0.058-1.086 0.438-2.038 1.495-2.858 1.046-0.822 2.426-1.233 4.119-1.233 1.685 0 3.053 0.406 4.084 1.216 1.029 0.803 1.543 1.965 1.543 3.48v7.087c0 0.509 0.024 0.999 0.089 1.478 0.067 0.482 0.168 0.959 0.31 1.423l-1.78 0.004zm-5.5-1.129c1.315 0 2.261-0.294 3.229-0.874 0.956-0.58 1.611-1.331 1.954-2.246v-2.757h-3.631c-1.385 0-2.53 0.307-3.437 0.925-0.903 0.617-1.364 1.365-1.364 2.235 0 0.818 0.29 1.471 0.869 1.97 0.59 0.499 1.38 0.747 2.38 0.747z"/>
	</g>
		<g fill="#fff">
			<path d="m45.458 14.262c0-3.049 2.266-5.01 5.082-5.01 1.887 0 3.123 0.9 3.891 2.003l-1.378 0.799c-0.524-0.725-1.439-1.291-2.513-1.291-1.917 0-3.339 1.451-3.339 3.498 0 2.02 1.423 3.5 3.339 3.5 0.988 0 1.858-0.451 2.294-0.87v-1.496h-2.904v-1.496h4.588v3.616c-0.944 1.06-2.309 1.771-3.979 1.771-2.815 0-5.081-1.987-5.081-5.024z"/>
			<path d="m56.62 19.099v-9.688h6.637v1.497h-4.937v2.496h4.835v1.495h-4.835v2.701h4.938v1.497l-6.638 0.002z"/>
			<path d="m67.958 19.099v-8.19h-2.934v-1.496h7.566v1.495h-2.935v8.19h-1.697z"/>
			<path d="m78.494 19.099v-9.688h1.699v9.688h-1.699z"/>
			<path d="m84.922 19.099v-8.19h-2.932v-1.496h7.563v1.495h-2.932v8.19h-1.699z"/>
			<path d="m95.039 14.262c0-2.89 2.046-5.01 4.953-5.01 2.889 0 4.948 2.12 4.948 5.01 0 2.891-2.06 5.01-4.948 5.01-2.907-0.001-4.953-2.12-4.953-5.01zm8.161 0c0-2.002-1.263-3.499-3.206-3.499-1.961 0-3.21 1.497-3.21 3.499 0 1.99 1.25 3.499 3.21 3.499 1.946 0 3.206-1.509 3.206-3.499z"/>
			<path d="m113.68 19.099l-5.053-6.928v6.928h-1.698v-9.688h1.742l4.948 6.709v-6.709h1.702v9.688h-1.64z"/>
		</g>
		<polygon points="25.172 42.375 30.141 37.406 30.139 37.406 25.172 42.375 9.318 26.52 9.318 26.52 25.172 42.377 9.292 58.255 9.292 58.255 25.172 42.377 30.163 47.365 30.165 47.365" fill="none"/>
			<linearGradient id="SVGID_1_" y2="-846.8" gradientUnits="userSpaceOnUse" x2="817.2" gradientTransform="matrix(.7071 .7071 -.7071 .7071 -1160.3 37.963)" y1="-833.7" x1="838.13">
			<stop stop-color="#D7E69D" offset="0"/>
			<stop stop-color="#94C4AA" offset=".4456"/>
			<stop stop-color="#01A4B6" offset="1"/>
		</linearGradient>
		<path d="m30.139 37.406l-19.356-10.643c-0.547-0.3-1.055-0.369-1.464-0.242l15.855 15.854 4.965-4.969z" fill="url(#SVGID_1_)"/>
			<linearGradient id="SVGID_2_" y2="-837.79" gradientUnits="userSpaceOnUse" x2="853.1" gradientTransform="matrix(.7071 .7071 -.7071 .7071 -1160.3 37.963)" y1="-844.89" x1="825.96">
			<stop stop-color="#ED277B" offset="0"/>
			<stop stop-color="#EE2F7C" offset=".0192"/>
			<stop stop-color="#F7BD81" offset=".7039"/>
			<stop stop-color="#FEEB74" offset="1"/>
		</linearGradient>
		<path d="m30.165 47.365l6.607-3.636c1.34-0.74 1.34-1.943 0-2.677l-6.632-3.646-4.967 4.969 4.992 4.99z" fill="url(#SVGID_2_)"/>
			<linearGradient id="SVGID_3_" y2="-841.08" gradientUnits="userSpaceOnUse" x2="811.68" gradientTransform="matrix(.7071 .7071 -.7071 .7071 -1160.3 37.963)" y1="-823.76" x1="841.11">
			<stop stop-color="#89CFBD" offset="0"/>
			<stop stop-color="#7DBEBB" offset=".0907"/>
			<stop stop-color="#457CAC" offset=".5396"/>
			<stop stop-color="#1C5AA2" offset=".8523"/>
			<stop stop-color="#084D9F" offset="1"/>
		</linearGradient>
		<path d="m9.318 26.52c-0.589 0.185-0.971 0.78-0.971 1.683l0.004 28.377c0 0.892 0.371 1.478 0.941 1.675l15.881-15.883-15.855-15.852z" fill="url(#SVGID_3_)"/>
			<linearGradient id="SVGID_4_" y2="-813.63" gradientUnits="userSpaceOnUse" x2="833.67" gradientTransform="matrix(.7071 .7071 -.7071 .7071 -1160.3 37.963)" y1="-837.51" x1="851.8">
			<stop stop-color="#F04A2B" offset="0"/>
			<stop stop-color="#B54F6B" offset=".4704"/>
			<stop stop-color="#8B5191" offset=".8353"/>
			<stop stop-color="#7851A1" offset="1"/>
		</linearGradient>
		<path d="m9.292 58.255c0.413 0.141 0.93 0.072 1.491-0.232l19.38-10.657-4.99-4.99-15.881 15.879z" fill="url(#SVGID_4_)"/>
</svg>
