<?xml version="1.0" encoding="UTF-8" standalone="no"?>
<!-- Generator: Adobe Illustrator 16.0.0, SVG Export Plug-In . SVG Version: 6.00 Build 0)  -->
<!DOCTYPE svg  PUBLIC '-//W3C//DTD SVG 1.1//EN'  'http://www.w3.org/Graphics/SVG/1.1/DTD/svg11.dtd'>
<svg id="Layer_1" xmlns="http://www.w3.org/2000/svg" xml:space="preserve" height="38.881px" viewBox="1.754 32.602 286.247 38.881" width="286.25px" version="1.1" y="0px" x="0px" xmlns:xlink="http://www.w3.org/1999/xlink" enable-background="new 1.754 32.602 286.247 38.881">
	<path d="m19.385 52.782c-0.68-0.646-1.478-1.189-2.395-1.632-0.917-0.44-1.885-0.661-2.905-0.661-0.781 0-1.503 0.152-2.165 0.457-0.664 0.307-0.994 0.833-0.994 1.58 0 0.714 0.365 1.223 1.095 1.529 0.731 0.306 1.912 0.646 3.542 1.02 0.951 0.203 1.912 0.491 2.879 0.866 0.969 0.373 1.843 0.865 2.625 1.479 0.781 0.611 1.409 1.358 1.885 2.242 0.476 0.883 0.714 1.935 0.714 3.158 0 1.599-0.324 2.949-0.969 4.052-0.646 1.104-1.486 1.996-2.521 2.675-1.037 0.68-2.201 1.172-3.492 1.477-1.291 0.307-2.582 0.459-3.872 0.459-2.073 0-4.103-0.332-6.09-0.993-1.986-0.663-3.643-1.639-4.968-2.93l4.688-4.942c0.747 0.814 1.665 1.493 2.751 2.037 1.087 0.545 2.242 0.815 3.465 0.815 0.678 0 1.351-0.16 2.012-0.484 0.664-0.321 0.994-0.892 0.994-1.707 0-0.78-0.407-1.358-1.223-1.731-0.814-0.375-2.088-0.765-3.82-1.173-0.885-0.205-1.768-0.476-2.65-0.815-0.885-0.338-1.674-0.797-2.371-1.375s-1.265-1.291-1.706-2.141c-0.442-0.85-0.663-1.868-0.663-3.059 0-1.526 0.323-2.827 0.969-3.897 0.644-1.07 1.478-1.943 2.497-2.624 1.019-0.679 2.148-1.181 3.389-1.504 1.238-0.322 2.47-0.484 3.694-0.484 1.902 0 3.762 0.298 5.58 0.893 1.816 0.596 3.354 1.486 4.611 2.676l-4.586 4.737z" fill="#03A9F4"/>
	<path d="m53.678 58.285v1.02s-0.018 0.663-0.051 0.968h-18.395c0.067 0.713 0.28 1.359 0.637 1.938s0.815 1.078 1.375 1.502c0.562 0.426 1.189 0.758 1.885 0.995 0.697 0.236 1.418 0.355 2.166 0.355 1.325 0 2.445-0.246 3.364-0.737 0.917-0.492 1.664-1.13 2.242-1.912l5.808 3.668c-1.189 1.732-2.761 3.066-4.712 4-1.955 0.935-4.222 1.4-6.804 1.4-1.902 0-3.703-0.297-5.401-0.891-1.7-0.594-3.185-1.46-4.459-2.599-1.274-1.138-2.277-2.539-3.007-4.203-0.731-1.665-1.096-3.568-1.096-5.708 0-2.072 0.357-3.949 1.072-5.631 0.713-1.682 1.681-3.107 2.904-4.28 1.224-1.172 2.667-2.081 4.331-2.727s3.465-0.969 5.402-0.969c1.867 0 3.583 0.315 5.146 0.943 1.562 0.629 2.904 1.537 4.025 2.726 1.121 1.19 1.996 2.633 2.625 4.332 0.628 1.7 0.943 3.637 0.943 5.81zm-7.695-3.21c0-1.326-0.416-2.464-1.248-3.414-0.832-0.951-2.08-1.428-3.745-1.428-0.816 0-1.563 0.127-2.242 0.382-0.68 0.256-1.275 0.604-1.785 1.045-0.509 0.441-0.917 0.96-1.222 1.553-0.305 0.596-0.477 1.215-0.51 1.861l10.752 0.001z" fill="#03A9F4"/>
	<path d="m75.335 52.17c-0.375-0.103-0.74-0.169-1.096-0.204-0.357-0.033-0.705-0.051-1.045-0.051-1.121 0-2.064 0.205-2.828 0.61-0.765 0.406-1.375 0.897-1.834 1.474-0.458 0.577-0.789 1.203-0.994 1.88-0.204 0.677-0.306 1.271-0.306 1.777v13.011h-8.356v-25.345h8.051v3.669h0.102c0.644-1.3 1.562-2.359 2.751-3.182 1.188-0.821 2.565-1.23 4.127-1.23 0.34 0 0.67 0.018 0.994 0.051 0.323 0.035 0.585 0.084 0.791 0.15l-0.357 7.39z" fill="#03A9F4"/>
	<path d="m96.503 70.668h-9.02l-9.988-25.377h9.224l5.35 16.459h0.153l5.351-16.459h8.917l-9.987 25.377z" fill="#03A9F4"/>
	<path d="m118.77 37.189c0 0.646-0.127 1.248-0.382 1.809s-0.595 1.044-1.019 1.453c-0.426 0.407-0.935 0.73-1.529 0.968-0.594 0.239-1.215 0.355-1.859 0.355-1.36 0-2.499-0.448-3.415-1.351-0.917-0.898-1.376-1.979-1.376-3.234 0-0.612 0.119-1.197 0.356-1.759 0.237-0.561 0.578-1.045 1.02-1.453 0.441-0.407 0.95-0.738 1.529-0.994 0.577-0.254 1.206-0.381 1.886-0.381 0.644 0 1.265 0.119 1.859 0.356 0.594 0.236 1.103 0.56 1.529 0.967 0.424 0.408 0.764 0.892 1.019 1.453 0.25 0.562 0.38 1.166 0.38 1.811zm-8.97 33.479v-25.377h8.356v25.377h-8.36z" fill="#03A9F4"/>
	<path d="m142.31 53.495c-0.477-0.611-1.121-1.104-1.937-1.479-0.815-0.373-1.647-0.56-2.497-0.56-0.884 0-1.682 0.178-2.396 0.535-0.713 0.355-1.324 0.832-1.834 1.426s-0.91 1.283-1.197 2.063c-0.29 0.781-0.434 1.613-0.434 2.496 0 0.884 0.135 1.716 0.408 2.497 0.272 0.783 0.67 1.471 1.197 2.064 0.526 0.596 1.155 1.063 1.885 1.4 0.731 0.34 1.555 0.511 2.471 0.511 0.849 0 1.69-0.162 2.523-0.484 0.833-0.323 1.504-0.791 2.013-1.401l4.637 5.656c-1.053 1.02-2.411 1.818-4.075 2.396-1.667 0.577-3.433 0.865-5.3 0.865-2.006 0-3.875-0.306-5.614-0.916-1.737-0.612-3.247-1.504-4.528-2.676s-2.289-2.59-3.024-4.255-1.102-3.55-1.102-5.657c0-2.072 0.366-3.94 1.102-5.604s1.743-3.083 3.024-4.254c1.282-1.173 2.791-2.072 4.528-2.701 1.738-0.628 3.591-0.943 5.562-0.943 0.918 0 1.826 0.086 2.726 0.254 0.9 0.172 1.767 0.401 2.599 0.689 0.831 0.289 1.597 0.646 2.293 1.069 0.696 0.427 1.3 0.893 1.81 1.402l-4.83 5.607z" fill="#03A9F4"/>
	<path d="m175.59 58.285v1.02s-0.018 0.663-0.051 0.968h-18.396c0.068 0.713 0.281 1.359 0.639 1.938 0.355 0.578 0.814 1.078 1.375 1.502 0.562 0.426 1.188 0.758 1.886 0.995 0.696 0.236 1.418 0.355 2.166 0.355 1.323 0 2.444-0.246 3.362-0.737 0.916-0.492 1.664-1.13 2.242-1.912l5.81 3.668c-1.188 1.732-2.761 3.066-4.713 4-1.953 0.935-4.222 1.4-6.804 1.4-1.901 0-3.703-0.297-5.399-0.891-1.701-0.594-3.187-1.46-4.461-2.599-1.272-1.138-2.274-2.539-3.007-4.203-0.729-1.665-1.096-3.568-1.096-5.708 0-2.072 0.357-3.949 1.07-5.631 0.715-1.682 1.682-3.107 2.904-4.28 1.225-1.172 2.668-2.081 4.332-2.727 1.664-0.645 3.465-0.969 5.402-0.969 1.866 0 3.582 0.315 5.146 0.943 1.562 0.629 2.901 1.537 4.022 2.726 1.121 1.19 1.996 2.633 2.627 4.332 0.62 1.7 0.94 3.637 0.94 5.81zm-7.7-3.21c0-1.326-0.416-2.464-1.248-3.414-0.832-0.951-2.08-1.428-3.744-1.428-0.815 0-1.563 0.127-2.241 0.382-0.681 0.256-1.275 0.604-1.785 1.045-0.508 0.441-0.916 0.96-1.222 1.553-0.307 0.596-0.479 1.215-0.512 1.861l10.74 0.001z" fill="#03A9F4"/>
	<path d="m186.9 68.222c0 0.713-0.254 1.352-0.762 1.911-0.513 0.561-1.173 0.84-1.988 0.84-0.814 0-1.479-0.279-1.988-0.84-0.508-0.56-0.764-1.197-0.764-1.911 0-0.713 0.256-1.351 0.764-1.912 0.51-0.56 1.174-0.84 1.988-0.84 0.815 0 1.477 0.281 1.988 0.84 0.5 0.562 0.76 1.199 0.76 1.912z" fill="#FFAB40"/>
	<path d="m212.53 52.272c-0.58-0.917-1.422-1.673-2.523-2.267-1.105-0.594-2.303-0.893-3.594-0.893-1.393 0-2.65 0.246-3.77 0.738-1.123 0.494-2.082 1.172-2.881 2.039-0.798 0.866-1.41 1.885-1.834 3.057-0.425 1.173-0.636 2.438-0.636 3.797 0 1.357 0.211 2.615 0.636 3.771 0.424 1.155 1.026 2.166 1.811 3.031 0.779 0.866 1.73 1.546 2.854 2.039 1.119 0.494 2.377 0.74 3.771 0.74 1.528 0 2.819-0.289 3.873-0.867 1.055-0.578 1.92-1.326 2.598-2.243l2.601 1.937c-1.019 1.257-2.269 2.26-3.744 3.007-1.478 0.746-3.254 1.12-5.326 1.12-1.936 0-3.686-0.314-5.248-0.942-1.563-0.629-2.896-1.504-4-2.625s-1.963-2.445-2.574-3.975c-0.609-1.528-0.918-3.192-0.918-4.993s0.309-3.466 0.918-4.995c0.611-1.529 1.471-2.854 2.574-3.975 1.104-1.121 2.438-1.995 4-2.624s3.313-0.942 5.248-0.942c1.596 0 3.219 0.349 4.867 1.044 1.647 0.696 2.979 1.726 4.002 3.084l-2.71 1.937z" fill="#FFAB40"/>
	<path d="m244.53 58.744c0 1.801-0.314 3.465-0.941 4.993-0.631 1.528-1.506 2.854-2.625 3.975-1.121 1.121-2.465 1.996-4.027 2.625-1.562 0.628-3.276 0.942-5.145 0.942-1.836 0-3.535-0.314-5.098-0.942-1.563-0.629-2.904-1.504-4.025-2.625s-1.996-2.445-2.625-3.975c-0.629-1.528-0.941-3.192-0.941-4.993s0.313-3.466 0.941-4.995 1.504-2.854 2.625-3.975c1.121-1.121 2.463-1.995 4.025-2.624s3.262-0.942 5.098-0.942c1.867 0 3.582 0.313 5.145 0.942s2.906 1.502 4.027 2.624c1.119 1.121 1.994 2.445 2.625 3.975 0.64 1.53 0.95 3.195 0.95 4.995zm-3.67 0c0-1.325-0.211-2.574-0.635-3.745-0.429-1.172-1.029-2.192-1.812-3.058s-1.731-1.555-2.854-2.063c-1.121-0.51-2.377-0.764-3.77-0.764-1.395 0-2.643 0.254-3.746 0.764-1.105 0.509-2.047 1.197-2.828 2.063-0.783 0.865-1.387 1.886-1.811 3.058-0.424 1.171-0.637 2.42-0.637 3.745 0 1.324 0.213 2.573 0.637 3.746 0.424 1.171 1.027 2.19 1.811 3.057 0.781 0.866 1.723 1.546 2.828 2.039 1.104 0.494 2.352 0.74 3.746 0.74 1.393 0 2.648-0.246 3.77-0.74 1.121-0.492 2.07-1.172 2.854-2.039 0.781-0.866 1.383-1.886 1.812-3.057 0.43-1.172 0.64-2.421 0.64-3.746z" fill="#FFAB40"/>
	<path d="m258.52 47.508c1.408-0.867 2.979-1.3 4.713-1.3 0.645 0 1.315 0.067 2.012 0.204 0.697 0.136 1.377 0.398 2.039 0.789 0.662 0.392 1.273 0.909 1.834 1.555 0.563 0.646 1.045 1.478 1.453 2.497 0.816-1.631 1.928-2.879 3.338-3.745 1.408-0.867 3.084-1.3 5.02-1.3 3.023 0 5.291 0.899 6.803 2.7 1.511 1.801 2.269 4.178 2.269 7.134v14.625h-3.465v-13.197c0-2.513-0.468-4.534-1.402-6.063s-2.521-2.293-4.764-2.293c-1.259 0-2.317 0.254-3.187 0.764-0.865 0.509-1.562 1.181-2.088 2.013-0.527 0.832-0.91 1.774-1.147 2.828-0.238 1.054-0.355 2.14-0.355 3.261v12.689h-3.465v-13.913c0-1.154-0.086-2.208-0.256-3.159s-0.468-1.758-0.892-2.42c-0.426-0.662-1.01-1.172-1.76-1.529-0.746-0.355-1.699-0.535-2.852-0.535-0.816 0-1.641 0.188-2.473 0.561-0.832 0.375-1.58 0.943-2.242 1.708-0.662 0.764-1.197 1.733-1.605 2.904-0.406 1.172-0.609 2.558-0.609 4.153v12.229h-3.467v-18.6c0-0.646-0.018-1.477-0.051-2.496-0.033-1.021-0.086-1.937-0.152-2.752h3.313c0.066 0.646 0.117 1.358 0.152 2.141 0.033 0.782 0.051 1.427 0.051 1.936h0.104c0.7-1.393 1.74-2.523 3.15-3.389z" fill="#FFAB40"/>
</svg>
